<?xml version="1.0" encoding="UTF-8"?>
<svg version="1.1" xmlns="http://www.w3.org/2000/svg" width="864" height="864">
<path d="M0 0 C285.12 0 570.24 0 864 0 C864 285.12 864 570.24 864 864 C578.88 864 293.76 864 0 864 C0 578.88 0 293.76 0 0 Z " fill="#FEFEFE" transform="translate(0,0)"/>
<path d="M0 0 C1.63485352 -0.02416992 1.63485352 -0.02416992 3.30273438 -0.04882812 C10.96677133 -0.05338192 17.73628755 1.09578326 25.0625 3.3125 C26.15824341 3.64109009 26.15824341 3.64109009 27.27612305 3.97631836 C42.10030074 8.69067563 53.91204321 16.48387303 65.0625 27.3125 C65.83207031 28.00859375 66.60164062 28.7046875 67.39453125 29.421875 C73.66054778 35.27158038 77.89343439 41.85756491 82.0625 49.3125 C82.47371094 50.04597656 82.88492188 50.77945313 83.30859375 51.53515625 C94.53810617 72.81442687 96.40922453 99.06194117 89.43896484 121.99438477 C85.9505312 132.81451078 80.68141884 141.82949868 73.859375 150.8828125 C71.95137919 153.37393228 71.95137919 153.37393228 70.1875 156.5 C57.19903237 173.69061892 31.8592824 183.70151501 11.1171875 186.92578125 C-14.07193123 189.67436044 -38.21455142 183.60197446 -58.22265625 167.73828125 C-77.21765933 152.3038181 -90.76592796 131.37575613 -93.7265625 106.66455078 C-96.11900409 79.98771946 -90.52520583 55.53735969 -74.125 34.0625 C-55.19939379 11.6090138 -29.21864879 -0.08608912 0 0 Z " fill="#649FF3" transform="translate(194.9375,352.6875)"/>
<path d="M0 0 C1.12148438 0.41765625 1.12148438 0.41765625 2.265625 0.84375 C20.15442407 8.40815646 33.99429134 26.48777782 41.8125 43.75 C51.01696384 68.19935707 51.70268434 96.16896024 41.00976562 120.22802734 C31.15462087 140.97545351 14.79714799 155.67886861 -6 165 C-6.99918457 165.45729492 -6.99918457 165.45729492 -8.01855469 165.92382812 C-18.72701572 170.60783139 -29.22674872 171.55418288 -40.8125 171.5625 C-42.74222656 171.56636719 -42.74222656 171.56636719 -44.7109375 171.5703125 C-68.31602528 171.15873661 -89.67263103 162.05808822 -106.6875 145.6875 C-126.30623762 125.19448708 -132.68423921 101.78891828 -132.31640625 74.1875 C-132.05131695 65.66914932 -130.72571685 58.05162411 -128 50 C-127.649375 48.94554687 -127.29875 47.89109375 -126.9375 46.8046875 C-118.7278189 24.96921625 -101.32480265 6.84268541 -80.15820312 -2.84277344 C-57.58941704 -12.30295372 -20.74686815 -16.10781689 0 0 Z " fill="#30302F" transform="translate(480,329)"/>
<path d="M0 0 C27.1940625 -0.0309375 27.1940625 -0.0309375 54.9375 -0.0625 C60.67116943 -0.071604 66.40483887 -0.08070801 72.31225586 -0.09008789 C79.29016113 -0.09460449 79.29016113 -0.09460449 82.55226135 -0.09544373 C84.84055271 -0.09698373 87.12884324 -0.10050981 89.41712952 -0.10557556 C92.87437357 -0.11284941 96.33156785 -0.11390754 99.78881836 -0.11352539 C101.329201 -0.11892255 101.329201 -0.11892255 102.90070248 -0.12442875 C103.82569829 -0.12305125 104.7506941 -0.12167376 105.70372009 -0.12025452 C106.51397613 -0.12117631 107.32423216 -0.1220981 108.1590414 -0.12304783 C110 0 110 0 111 1 C111 10.57 111 20.14 111 30 C86.25 30 61.5 30 36 30 C36 44.85 36 59.7 36 75 C54.81 75 73.62 75 93 75 C93 84.57 93 94.14 93 104 C74.19 104 55.38 104 36 104 C36 128.75 36 153.5 36 179 C24.12 179 12.24 179 0 179 C0 119.93 0 60.86 0 0 Z " fill="#343333" transform="translate(555,320)"/>
<path d="M0 0 C13.74972038 11.15232193 22.29129223 24.21154018 24.23193359 42.14306641 C25.52595517 60.44306244 21.61601658 78.52399268 9.8828125 92.8984375 C1.08107903 102.72277901 -9.21944199 108.18482299 -22.49902344 109.18896484 C-38.80930034 109.99315614 -51.73289341 108.2652138 -65 98 C-76.01728385 87.80901244 -82.92561931 72.50015268 -84.20654297 57.59692383 C-84.30251528 55.12327481 -84.32881567 52.66292324 -84.3125 50.1875 C-84.30831055 49.31311279 -84.30412109 48.43872559 -84.29980469 47.5378418 C-84.01627826 31.23356428 -77.89712068 17.04548936 -66.6875 5.25 C-49.65958333 -10.98723398 -19.41396968 -13.57971972 0 0 Z " fill="#FCFCFC" transform="translate(468,359)"/>
<path d="M0 0 C1.55763062 0.04229736 1.55763062 0.04229736 3.14672852 0.08544922 C10.42191609 0.36063092 17.05990826 1.15468134 23.9375 3.625 C25.18402344 4.0271875 26.43054688 4.429375 27.71484375 4.84375 C41.90222415 9.60132781 53.19488477 17.19244327 63.9375 27.625 C64.70707031 28.32109375 65.47664063 29.0171875 66.26953125 29.734375 C72.53554778 35.58408038 76.76843439 42.17006491 80.9375 49.625 C81.34871094 50.35847656 81.75992188 51.09195313 82.18359375 51.84765625 C90.9713265 68.49989691 92.11623122 85.21568471 91.9375 103.625 C72.00091959 114.41852317 50.58118301 120.1522186 27.98046875 113.79296875 C7.99219917 106.12096284 -8.01982076 92.19301377 -17.0625 72.625 C-25.41915021 52.47780313 -25.23967517 31.03706456 -17.57421875 10.765625 C-17.07535156 9.72921875 -16.57648438 8.6928125 -16.0625 7.625 C-15.76754639 6.98965332 -15.47259277 6.35430664 -15.16870117 5.69970703 C-11.54539875 -0.74625828 -6.86872396 -0.32386695 0 0 Z " fill="#1E32C8" transform="translate(196.0625,352.375)"/>
<path d="M0 0 C12.48050289 9.8048764 21.13645644 20.69438137 26.51171875 35.59375 C26.76655029 36.29830322 27.02138184 37.00285645 27.28393555 37.72875977 C33.75221052 56.62194481 30.51878032 77.29922244 22.19921875 94.96875 C16.41016379 105.56431389 9.17410426 114.11904321 -0.80078125 120.96875 C-1.13078125 120.96875 -1.46078125 120.96875 -1.80078125 120.96875 C-1.83518311 120.26492188 -1.86958496 119.56109375 -1.9050293 118.8359375 C-2.63995088 104.87128799 -3.5703126 92.02897508 -8.80078125 78.96875 C-9.12046875 78.12957031 -9.44015625 77.29039062 -9.76953125 76.42578125 C-14.24687323 65.52190961 -20.62462514 56.38790376 -28.80078125 47.96875 C-29.414375 47.28167969 -30.02796875 46.59460938 -30.66015625 45.88671875 C-44.6744517 30.70456535 -67.38171794 20.65592845 -87.80859375 19.5546875 C-89.84736077 19.47627338 -91.88645728 19.40601943 -93.92578125 19.34375 C-94.97765625 19.30507813 -96.02953125 19.26640625 -97.11328125 19.2265625 C-99.67561881 19.13338659 -102.23796904 19.04757618 -104.80078125 18.96875 C-95.55683384 4.37529599 -80.39678257 -7.61434025 -63.40942383 -11.59106445 C-40.8401147 -16.12195513 -18.87228268 -13.68701115 0 0 Z " fill="#7BD4DD" transform="translate(289.80078125,334.03125)"/>
<path d="M0 0 C4.07233884 2.11349231 6.15996801 4.18406149 8.1015625 8.2734375 C8.83916598 13.9549778 9.56683578 20.92833585 6.3515625 25.9609375 C5.6090625 26.7240625 4.8665625 27.4871875 4.1015625 28.2734375 C3.5446875 28.8921875 2.9878125 29.5109375 2.4140625 30.1484375 C-1.30808186 31.95921043 -4.84761114 31.89934643 -8.8984375 31.2734375 C-12.50602657 29.53645017 -14.38341896 27.96012889 -16.7734375 24.7734375 C-18.61472002 19.04500299 -19.06259116 12.84100516 -17.171875 7.046875 C-13.57801197 0.18055132 -7.50798996 -2.87342826 0 0 Z " fill="#F8F8F7" transform="translate(536.8984375,524.7265625)"/>
<path d="M0 0 C4.25835223 2.46386266 7.39903154 5.23465514 9 9.9375 C9 10.948125 9 11.95875 9 13 C9.103125 14.27875 9.20625 15.5575 9.3125 16.875 C9.24063226 21.55538644 7.66265347 25.1899531 5 29 C1.45706102 32.2392585 -2.13140194 32.57686994 -6.78125 32.421875 C-10.64770813 31.68670338 -12.3349795 29.860022 -15 27 C-18.4171003 21.70290334 -17.79161469 15.01761335 -17 9 C-13.36487819 1.40638664 -8.34811024 -1.61661817 0 0 Z " fill="#F5F5F5" transform="translate(401,524)"/>
<path d="M0 0 C4.07233884 2.11349231 6.15996801 4.18406149 8.1015625 8.2734375 C8.83916598 13.9549778 9.56683578 20.92833585 6.3515625 25.9609375 C5.6090625 26.7240625 4.8665625 27.4871875 4.1015625 28.2734375 C3.5446875 28.8921875 2.9878125 29.5109375 2.4140625 30.1484375 C-1.30808186 31.95921043 -4.84761114 31.89934643 -8.8984375 31.2734375 C-12.50602657 29.53645017 -14.38341896 27.96012889 -16.7734375 24.7734375 C-18.61472002 19.04500299 -19.06259116 12.84100516 -17.171875 7.046875 C-13.57801197 0.18055132 -7.50798996 -2.87342826 0 0 Z M-12.8984375 8.2734375 C-13.49040604 11.44788651 -13.49040604 11.44788651 -13.3359375 14.7734375 C-13.33464844 15.876875 -13.33335937 16.9803125 -13.33203125 18.1171875 C-12.85425086 21.59508441 -11.99019317 23.47786757 -9.8984375 26.2734375 C-6.62786607 28.45381845 -5.69324281 28.90590505 -1.8984375 28.2734375 C1.70024661 25.24727132 3.82943625 23.02086595 4.3046875 18.22265625 C4.41063417 13.11072937 3.91880454 9.71601149 1.1015625 5.2734375 C-1.44574792 2.72612708 -3.34359029 2.92020606 -6.828125 2.71484375 C-10.12641731 3.60476035 -11.14641759 5.42302101 -12.8984375 8.2734375 Z " fill="#464544" transform="translate(536.8984375,524.7265625)"/>
<path d="M0 0 C4.25835223 2.46386266 7.39903154 5.23465514 9 9.9375 C9 10.948125 9 11.95875 9 13 C9.103125 14.27875 9.20625 15.5575 9.3125 16.875 C9.24063226 21.55538644 7.66265347 25.1899531 5 29 C1.45706102 32.2392585 -2.13140194 32.57686994 -6.78125 32.421875 C-10.64770813 31.68670338 -12.3349795 29.860022 -15 27 C-18.4171003 21.70290334 -17.79161469 15.01761335 -17 9 C-13.36487819 1.40638664 -8.34811024 -1.61661817 0 0 Z M-12.15234375 7.95703125 C-13.91675543 12.20950734 -13.73235467 16.51932099 -13 21 C-11.01031547 24.91075925 -9.63466354 26.57689098 -6 29 C-3.58655333 29.66743877 -3.58655333 29.66743877 -1 29 C3.94634855 23.94123444 5.3416829 20.15977931 5.296875 13.29296875 C4.78787315 9.36159923 2.78881181 6.78881181 0 4 C-5.33855678 3.37716838 -8.76558491 3.12372456 -12.15234375 7.95703125 Z " fill="#474747" transform="translate(401,524)"/>
<path d="M0 0 C1.65 0 3.3 0 5 0 C6.06451654 1.95723791 7.12648779 3.91586019 8.1875 5.875 C8.77917969 6.96554687 9.37085938 8.05609375 9.98046875 9.1796875 C12.39522344 13.74763738 14.6892769 18.37855379 17 23 C17.33 15.41 17.66 7.82 18 0 C18.99 0 19.98 0 21 0 C21 9.9 21 19.8 21 30 C16 29 16 29 14.54614258 27.29760742 C14.16611084 26.57420166 13.7860791 25.8507959 13.39453125 25.10546875 C12.96849609 24.31462891 12.54246094 23.52378906 12.10351562 22.70898438 C11.67748047 21.87689453 11.25144531 21.04480469 10.8125 20.1875 C10.37486328 19.36701172 9.93722656 18.54652344 9.48632812 17.70117188 C7.6046781 14.15907342 5.7937863 10.58757259 4 7 C3.67 14.59 3.34 22.18 3 30 C2.01 30 1.02 30 0 30 C0 20.1 0 10.2 0 0 Z " fill="#303030" transform="translate(417,525)"/>
<path d="M0 0 C1.32 0 2.64 0 4 0 C4.01981934 0.64549805 4.03963867 1.29099609 4.06005859 1.95605469 C4.15546328 4.88777221 4.26507971 7.81879232 4.375 10.75 C4.4059375 11.76578125 4.436875 12.7815625 4.46875 13.828125 C4.50742187 14.8078125 4.54609375 15.7875 4.5859375 16.796875 C4.6173584 17.69760742 4.6487793 18.59833984 4.68115234 19.52636719 C5.01137256 22.08822875 5.70951673 23.78127437 7 26 C8.27875 26.061875 9.5575 26.12375 10.875 26.1875 C11.59429688 26.22230469 12.31359375 26.25710938 13.0546875 26.29296875 C14.01761719 26.14794922 14.01761719 26.14794922 15 26 C17.19164944 22.71252584 17.28679386 21.51505175 17.4140625 17.67578125 C17.45273437 16.64775391 17.49140625 15.61972656 17.53125 14.56054688 C17.57765625 12.95276367 17.57765625 12.95276367 17.625 11.3125 C17.66367187 10.22904297 17.70234375 9.14558594 17.7421875 8.02929688 C17.83650509 5.35303533 17.92210005 2.67678157 18 0 C19.32 0 20.64 0 22 0 C22.11638426 4.06225821 22.18731373 8.1240863 22.25 12.1875 C22.30027344 13.91323242 22.30027344 13.91323242 22.3515625 15.67382812 C22.36445312 16.78564453 22.37734375 17.89746094 22.390625 19.04296875 C22.41157227 20.06414795 22.43251953 21.08532715 22.45410156 22.13745117 C21.87764322 25.77130822 20.56203669 27.40586556 18 30 C13.95876988 31.34707671 10.22575135 31.56649565 6 31 C3.19315861 28.91286153 1.94549074 26.91823611 0 24 C-0.22705078 21.45629883 -0.22705078 21.45629883 -0.1953125 18.45703125 C-0.18886719 17.38388672 -0.18242188 16.31074219 -0.17578125 15.20507812 C-0.15064453 13.52575195 -0.15064453 13.52575195 -0.125 11.8125 C-0.11597656 10.68134766 -0.10695313 9.55019531 -0.09765625 8.38476562 C-0.07406862 5.58963172 -0.041153 2.79492155 0 0 Z " fill="#5A5A5A" transform="translate(578,525)"/>
<path d="M0 0 C2 1.3125 2 1.3125 3 3 C3 3.99 3 4.98 3 6 C2.505 5.835 2.01 5.67 1.5 5.5 C-2.03444089 4.79311182 -5.39690701 4.93994845 -9 5 C-9.49152438 7.34571804 -9.49152438 7.34571804 -9 10 C-6.42003678 12.04363899 -6.42003678 12.04363899 -3.125 13.625 C2.8210399 16.73155985 2.8210399 16.73155985 5 20 C5.50326079 23.85833276 5.31669325 25.50857943 3.1875 28.8125 C0.20999904 31.79000096 -1.62557402 31.96930935 -5.8125 32.3125 C-10.30274837 32.28760029 -12.54585895 30.76331284 -16 28 C-15.505 26.515 -15.505 26.515 -15 25 C-14.360625 25.33 -13.72125 25.66 -13.0625 26 C-8.98763159 27.33056928 -5.24809575 27.16659199 -1 27 C0.00217064 23.41672247 0.00217064 23.41672247 -1 20 C-4.0241468 18.40107702 -7.11447007 16.98002646 -10.21484375 15.53515625 C-13 14 -13 14 -15 11 C-15.375 8.0625 -15.375 8.0625 -15 5 C-10.97841603 -0.13098644 -6.173965 -0.73315834 0 0 Z " fill="#474747" transform="translate(622,524)"/>
<path d="M0 0 C5.94 0 11.88 0 18 0 C18 1.32 18 2.64 18 4 C13.71 4 9.42 4 5 4 C5 6.97 5 9.94 5 13 C8.63 13 12.26 13 16 13 C16 14.32 16 15.64 16 17 C12.37 17 8.74 17 5 17 C5 21.62 5 26.24 5 31 C3.35 31 1.7 31 0 31 C0 20.77 0 10.54 0 0 Z " fill="#6A6A6A" transform="translate(498,525)"/>
<path d="M0 0 C2.5625 1.5 2.5625 1.5 4 3 C3.67 3.99 3.34 4.98 3 6 C2.01 5.67 1.02 5.34 0 5 C-1.95586747 4.80540963 -1.95586747 4.80540963 -4 4.8125 C-4.680625 4.79832031 -5.36125 4.78414062 -6.0625 4.76953125 C-8.32614132 4.89059589 -8.32614132 4.89059589 -11 7 C-12.23185074 10.22730485 -12.23111745 13.57336644 -12.3125 17 C-12.34988281 18.03125 -12.38726563 19.0625 -12.42578125 20.125 C-12.21901017 23.09843504 -12.21901017 23.09843504 -10.23046875 25.35546875 C-7.82789039 27.12689693 -6.91996463 27.47788862 -4 27.3125 C-3.3090625 27.27769531 -2.618125 27.24289062 -1.90625 27.20703125 C0.13387422 26.98546038 2.05034836 26.64988388 4 26 C4 27.32 4 28.64 4 30 C-0.27052857 32.84701905 -3.99248123 32.48951706 -9 32 C-12.75292779 30.69463381 -14.34169059 28.82787194 -16.3125 25.5 C-18.60029506 20.43883706 -18.82679713 15.45352048 -18 10 C-14.06002655 1.97412817 -8.81104105 -1.43015032 0 0 Z " fill="#343433" transform="translate(568,524)"/>
<path d="M0 0 C1.32 0 2.64 0 4 0 C5.98 4.29 7.96 8.58 10 13 C11.78821774 10.31767339 13.20142604 7.69711039 14.625 4.8125 C15.07101562 3.91144531 15.51703125 3.01039063 15.9765625 2.08203125 C16.31429688 1.39496094 16.65203125 0.70789063 17 0 C18.32 0.33 19.64 0.66 21 1 C19.55826683 5.10893953 18.36623409 8.47219205 15.875 12.0625 C12.54186341 17.48202742 13.15946616 24.80473966 13 31 C11.35 31 9.7 31 8 31 C8.00902344 30.09121094 8.01804687 29.18242188 8.02734375 28.24609375 C7.77769443 17.66313335 4.87548076 10.2926918 0 1 C0 0.67 0 0.34 0 0 Z " fill="#2C2C2C" transform="translate(463,525)"/>
<path d="M0 0 C1.27875 0.103125 2.5575 0.20625 3.875 0.3125 C4.95394531 0.39951172 4.95394531 0.39951172 6.0546875 0.48828125 C8 1 8 1 10 4 C12.08171404 4.9011261 12.08171404 4.9011261 14.4375 5.5 C18.67660355 6.67326095 18.67660355 6.67326095 20.51171875 8.52734375 C22.40392064 10.39968001 23.77686699 10.60583157 26.375 11.0625 C28.83557806 11.50641872 30.85288671 11.92907827 33.11279297 13.01855469 C36.9333186 14.31726203 40.56098835 14.26716936 44.546875 14.23046875 C45.76458588 14.22978142 45.76458588 14.22978142 47.00689697 14.2290802 C48.71473664 14.22606946 50.42257385 14.21821858 52.13037109 14.20581055 C54.7549807 14.18746519 57.37923899 14.18530162 60.00390625 14.18554688 C61.66406557 14.18063463 63.3242225 14.17480759 64.984375 14.16796875 C65.77285828 14.16685593 66.56134155 14.1657431 67.37371826 14.16459656 C70.9849822 14.46981265 70.9849822 14.46981265 74 13 C76.67058851 12.85884839 79.32432238 12.95752893 82 13 C68.94950413 20.50403512 47.88463819 19.91246381 33.6875 16.375 C21.70328616 13.07997889 9.98807251 8.53777614 0 1 C0 0.67 0 0.34 0 0 Z " fill="#86ACDD" transform="translate(140,522)"/>
<path d="M0 0 C0.66 0 1.32 0 2 0 C1.60106659 4.38826747 -0.17420988 6.90920967 -2.74609375 10.31640625 C-4.10398582 12.07688583 -4.10398582 12.07688583 -5.4375 14.4375 C-15.97513708 31.71922482 -33.11829537 43.32682426 -52 50 C-52.66 50 -53.32 50 -54 50 C-54 48.68 -54 47.36 -54 46 C-43.62642369 41.40774487 -43.62642369 41.40774487 -38 42 C-37.67 41.01 -37.34 40.02 -37 39 C-33.62132353 36.53447933 -32.29441798 36 -28 36 C-28 35.01 -28 34.02 -28 33 C-26.02 32.34 -24.04 31.68 -22 31 C-21.67 29.35 -21.34 27.7 -21 26 C-19.35 26 -17.7 26 -16 26 C-16 24.68 -16 23.36 -16 22 C-15.34 22 -14.68 22 -14 22 C-14 21.34 -14 20.68 -14 20 C-13.34 20 -12.68 20 -12 20 C-12 19.01 -12 18.02 -12 17 C-11.34 17 -10.68 17 -10 17 C-9.34 15.68 -8.68 14.36 -8 13 C-7.34 13 -6.68 13 -6 13 C-6 12.01 -6 11.02 -6 10 C-5.34 10 -4.68 10 -4 10 C-3.67 8.68 -3.34 7.36 -3 6 C-2.34 6 -1.68 6 -1 6 C-0.67 4.02 -0.34 2.04 0 0 Z " fill="#7EA2D7" transform="translate(277,485)"/>
<path d="M0 0 C1.32 0 2.64 0 4 0 C4 8.91 4 17.82 4 27 C8.29 27 12.58 27 17 27 C17 28.32 17 29.64 17 31 C11.39 31 5.78 31 0 31 C0 20.77 0 10.54 0 0 Z " fill="#454645" transform="translate(447,525)"/>
<path d="M0 0 C26.17618469 -0.47387606 26.17618469 -0.47387606 38 4 C38 4.66 38 5.32 38 6 C39.051875 5.9071875 39.051875 5.9071875 40.125 5.8125 C43.68674586 6.04478777 45.82766139 7.38272934 49 9 C50.38810483 9.3641796 51.78480135 9.69685267 53.1875 10 C58.21192053 11.31788079 58.21192053 11.31788079 60 14 C60 14.66 60 15.32 60 16 C60.66 16 61.32 16 62 16 C62 16.66 62 17.32 62 18 C63.65 18.33 65.3 18.66 67 19 C67 19.66 67 20.32 67 21 C68.485 21.495 68.485 21.495 70 22 C70 22.66 70 23.32 70 24 C70.66 24.33 71.32 24.66 72 25 C67.93786679 25 66.70477158 23.40384008 63.5625 20.875 C47.87242363 8.67878151 29.53152866 2.97519935 9.875 2.375 C8.823125 2.33632813 7.77125 2.29765625 6.6875 2.2578125 C4.12516244 2.16463659 1.56281221 2.07882618 -1 2 C-0.67 1.34 -0.34 0.68 0 0 Z " fill="#76B8ED" transform="translate(186,351)"/>
<path d="M0 0 C0.33 0 0.66 0 1 0 C1.52406045 22.94220192 -3.23842026 42.66434033 -19.08984375 60.140625 C-22.46558818 63.42662571 -26.19186712 66.23672898 -30 69 C-30.33 68.01 -30.66 67.02 -31 66 C-30.01 66 -29.02 66 -28 66 C-27.7525 65.360625 -27.505 64.72125 -27.25 64.0625 C-26 62 -26 62 -23.875 61.25 C-23.25625 61.1675 -22.6375 61.085 -22 61 C-21.938125 60.21625 -21.87625 59.4325 -21.8125 58.625 C-21.544375 57.75875 -21.27625 56.8925 -21 56 C-19.33333333 55.33333333 -17.66666667 54.66666667 -16 54 C-15.10613836 51.45224694 -15.10613836 51.45224694 -15 49 C-14.34 49 -13.68 49 -13 49 C-12.67 47.68 -12.34 46.36 -12 45 C-11.34 45 -10.68 45 -10 45 C-9.87625 43.9275 -9.7525 42.855 -9.625 41.75 C-8.9259372 37.55562323 -7.77576868 35.19597672 -5.5 31.6875 C-1.80703034 25.07092936 -1.4636537 17.97857163 -0.875 10.5625 C-0.78863281 9.54478516 -0.70226562 8.52707031 -0.61328125 7.47851562 C-0.40265674 4.98612558 -0.19839929 2.4933879 0 0 Z " fill="#9AD0D4" transform="translate(319,386)"/>
<path d="M0 0 C1.32 0 2.64 0 4 0 C4.01981934 0.6297876 4.03963867 1.2595752 4.06005859 1.90844727 C4.15598897 4.7935136 4.2653897 7.6779223 4.375 10.5625 C4.4059375 11.55314453 4.436875 12.54378906 4.46875 13.56445312 C4.68712497 19.04202523 5.20950139 23.8104654 7 29 C4.39014435 28.64001991 3.22543747 28.23601389 1.3815918 26.30566406 C-0.33416416 23.44233146 -0.345968 21.68066147 -0.29296875 18.359375 C-0.28330078 17.28945313 -0.27363281 16.21953125 -0.26367188 15.1171875 C-0.23853516 14.00601563 -0.21339844 12.89484375 -0.1875 11.75 C-0.17396484 10.62335937 -0.16042969 9.49671875 -0.14648438 8.3359375 C-0.11115645 5.55680736 -0.0618252 2.77864637 0 0 Z " fill="#595958" transform="translate(578,525)"/>
<path d="M0 0 C7.01025914 10.51538872 5.11744401 25.90326709 5 38 C2.9219935 39.17713663 0.83848217 40.34171974 -1.25 41.5 C-1.83652344 41.83386719 -2.42304688 42.16773438 -3.02734375 42.51171875 C-6.38582107 44.36076806 -8.06645784 45 -12 45 C-11.3125 43.0625 -11.3125 43.0625 -10 41 C-7.5625 40.3125 -7.5625 40.3125 -5 40 C-1.51236025 38.83745342 -0.93391627 38.02699938 1 35 C2.89881633 31.20236734 3.19656628 28.22617499 3 24 C2.67 24 2.34 24 2 24 C1.93941406 23.02160156 1.87882812 22.04320312 1.81640625 21.03515625 C1.36678488 14.00031117 0.85950635 6.99883741 0 0 Z " fill="#1F40B8" transform="translate(283,418)"/>
<path d="M0 0 C2 1.3125 2 1.3125 3 3 C3 3.99 3 4.98 3 6 C2.505 5.835 2.01 5.67 1.5 5.5 C-2.03444089 4.79311182 -5.39690701 4.93994845 -9 5 C-9.34900558 8.71736641 -9.34900558 8.71736641 -7.5 11.8125 C-7.005 12.204375 -6.51 12.59625 -6 13 C-7.98 13.66 -9.96 14.32 -12 15 C-14.19007834 12.62741513 -14.965678 11.23535087 -15.4375 8 C-14.90082399 4.31993592 -13.90680521 3.24239259 -11 1 C-7.2505911 -0.24980297 -3.92294754 -0.46585002 0 0 Z " fill="#59595A" transform="translate(622,524)"/>
<path d="M0 0 C3.82913519 1.42533201 6.49443471 3.03283162 8.4375 6.75 C8.623125 7.4925 8.80875 8.235 9 9 C8.34 9 7.68 9 7 9 C7.05220703 10.42892578 7.05220703 10.42892578 7.10546875 11.88671875 C7.13253906 13.14097656 7.15960937 14.39523437 7.1875 15.6875 C7.23970703 17.54955078 7.23970703 17.54955078 7.29296875 19.44921875 C6.98220544 23.21567013 6.29709429 25.04028236 4 28 C1.8125 28.8125 1.8125 28.8125 0 29 C0.639375 28.236875 1.27875 27.47375 1.9375 26.6875 C5.47956352 22.07208389 5.56448006 17.61609827 5 12 C3.47797806 8.19160717 3.47797806 8.19160717 1 5 C-0.51928038 4.92820036 -2.04167482 4.91607993 -3.5625 4.9375 C-4.80193359 4.95103516 -4.80193359 4.95103516 -6.06640625 4.96484375 C-7.02353516 4.98224609 -7.02353516 4.98224609 -8 5 C-8 4.34 -8 3.68 -8 3 C-8.66 2.67 -9.32 2.34 -10 2 C-6.22786948 -0.51475368 -4.47964158 -0.44796416 0 0 Z " fill="#4D4E4D" transform="translate(535,524)"/>
<path d="M0 0 C0.99 0 1.98 0 3 0 C3 9.9 3 19.8 3 30 C1.35 29.67 -0.3 29.34 -2 29 C-2.33 27.35 -2.66 25.7 -3 24 C-2.34 24 -1.68 24 -1 24 C-0.67 16.08 -0.34 8.16 0 0 Z " fill="#353535" transform="translate(435,525)"/>
<path d="M0 0 C1.6045556 0.14148989 3.20863767 0.28835686 4.8125 0.4375 C5.70582031 0.51871094 6.59914062 0.59992188 7.51953125 0.68359375 C10 1 10 1 13 2 C16.55838851 2.23146837 20.12236736 2.18517441 23.6875 2.1875 C24.65623047 2.19974609 25.62496094 2.21199219 26.62304688 2.22460938 C32.46367078 2.23645648 37.39051186 1.60540906 43 0 C46 -0.125 46 -0.125 48 0 C48 0.66 48 1.32 48 2 C39.73141723 4.66626085 31.88643178 5.32521034 23.25 5.375 C21.79581665 5.39530273 21.79581665 5.39530273 20.31225586 5.41601562 C12.77463802 5.36967385 6.3394827 4.2263218 0 0 Z " fill="#1D41BD" transform="translate(222,463)"/>
<path d="M0 0 C0.99 0 1.98 0 3 0 C3.68858357 13.96294462 3.68858357 13.96294462 1.25 17.6875 C0.5075 18.450625 -0.235 19.21375 -1 20 C-1.556875 20.61875 -2.11375 21.2375 -2.6875 21.875 C-6.31250293 23.63851494 -10.03700295 23.39782982 -14 23 C-14.66 22.67 -15.32 22.34 -16 22 C-16 21.01 -16 20.02 -16 19 C-15.24074219 19.02320313 -14.48148438 19.04640625 -13.69921875 19.0703125 C-12.20841797 19.09738281 -12.20841797 19.09738281 -10.6875 19.125 C-9.20830078 19.15980469 -9.20830078 19.15980469 -7.69921875 19.1953125 C-4.77593473 19.20682639 -4.77593473 19.20682639 -2 17 C-0.84429296 13.53287889 -0.67164707 10.4585044 -0.4375 6.8125 C-0.35371094 5.54019531 -0.26992188 4.26789062 -0.18359375 2.95703125 C-0.12300781 1.98121094 -0.06242188 1.00539063 0 0 Z " fill="#353636" transform="translate(542,533)"/>
<path d="M0 0 C1.32 0.33 2.64 0.66 4 1 C2.55826683 5.10893953 1.36623409 8.47219205 -1.125 12.0625 C-4.45813659 17.48202742 -3.84053384 24.80473966 -4 31 C-5.65 31 -7.3 31 -9 31 C-9 26.71 -9 22.42 -9 18 C-8.67 18 -8.34 18 -8 18 C-8 21.96 -8 25.92 -8 30 C-7.01 30 -6.02 30 -5 30 C-5.11341637 27.68690295 -5.24103807 25.37449815 -5.375 23.0625 C-5.44460938 21.77472656 -5.51421875 20.48695313 -5.5859375 19.16015625 C-5.72257812 18.11730469 -5.85921875 17.07445312 -6 16 C-6.66 15.67 -7.32 15.34 -8 15 C-7 13 -7 13 -5 10 C-4.10634875 8.28039836 -3.23263717 6.55034374 -2.375 4.8125 C-1.92898438 3.91144531 -1.48296875 3.01039063 -1.0234375 2.08203125 C-0.68570312 1.39496094 -0.34796875 0.70789063 0 0 Z " fill="#686868" transform="translate(480,525)"/>
<path d="M0 0 C0.33 0 0.66 0 1 0 C1.00410889 0.55647217 1.00821777 1.11294434 1.01245117 1.6862793 C1.24164545 19.62027315 3.02824534 39.00824082 12 55 C12.66 55.33 13.32 55.66 14 56 C14.40729228 58.32156597 14.74438677 60.6568787 15 63 C2.95089297 49.08120394 -0.20685376 28.74440886 -0.0625 11 C-0.05573242 9.40865234 -0.05573242 9.40865234 -0.04882812 7.78515625 C-0.03713843 5.19004402 -0.02075276 2.59505291 0 0 Z " fill="#78A5E2" transform="translate(101,434)"/>
<path d="M0 0 C0.66 0 1.32 0 2 0 C3.61491293 3.22982585 3.45300335 6.49840652 3 10 C1.42828095 14.45061039 -0.03073794 17.35382529 -4 20 C-6.48046875 20.1953125 -6.48046875 20.1953125 -9.1875 20.125 C-10.08855469 20.10695313 -10.98960937 20.08890625 -11.91796875 20.0703125 C-12.60503906 20.04710937 -13.29210937 20.02390625 -14 20 C-13.67 19.34 -13.34 18.68 -13 18 C-11.88625 17.71125 -10.7725 17.4225 -9.625 17.125 C-5.66127419 15.8948782 -5.0229663 15.44021885 -3 12 C-2.25332456 9.22994846 -2.25332456 9.22994846 -1.875 6.3125 C-1.08580343 1.08580343 -1.08580343 1.08580343 0 0 Z " fill="#393B3B" transform="translate(407,535)"/>
<path d="M0 0 C0.66 0 1.32 0 2 0 C1.8570752 0.74918701 1.71415039 1.49837402 1.56689453 2.27026367 C-0.01310863 11.3425176 -0.23862945 20.14817778 -0.125 29.3125 C-0.11493517 30.74673844 -0.1058156 32.18098383 -0.09765625 33.61523438 C-0.07595449 37.07697115 -0.04162455 40.53843852 0 44 C-0.99 43.67 -1.98 43.34 -3 43 C-3.07539006 38.965665 -3.12917203 34.93161493 -3.16479492 30.89672852 C-3.17967888 29.53044474 -3.19999286 28.16420692 -3.22631836 26.7980957 C-3.40223047 17.41956597 -2.56549051 9.03465296 0 0 Z " fill="#D3EFFE" transform="translate(102,421)"/>
<path d="M0 0 C1.7071134 3.41422681 0.84258936 7.30540151 0.64453125 11.0546875 C0.76335095 14.09131745 0.76335095 14.09131745 2.76171875 16.36328125 C5.16829684 18.12306523 6.08323618 18.47770733 9 18.3125 C9.6909375 18.27769531 10.381875 18.24289062 11.09375 18.20703125 C13.13387422 17.98546038 15.05034836 17.64988388 17 17 C17 18.32 17 19.64 17 21 C13.74917327 23.16721782 12.70767847 23.27221018 8.9375 23.25 C8.05964844 23.25515625 7.18179688 23.2603125 6.27734375 23.265625 C4 23 4 23 2 21 C2.33 20.67 2.66 20.34 3 20 C2.34 19.67 1.68 19.34 1 19 C-1.46090888 15.43384082 -1.23569498 12.04051457 -1.1875 7.8125 C-1.18105469 6.56082031 -1.17460938 5.30914063 -1.16796875 4.01953125 C-1 1 -1 1 0 0 Z " fill="#706F6F" transform="translate(555,533)"/>
<path d="M0 0 C-0.85722656 0.75023437 -1.71445313 1.50046875 -2.59765625 2.2734375 C-9.42798371 8.35094127 -15.0445135 14.25528252 -20 22 C-21.31270834 23.68295941 -22.63360658 25.3603279 -24 27 C-24.52993627 22.23926106 -23.00748481 20.00997974 -20.1875 16.25 C-19.12595703 14.80367188 -19.12595703 14.80367188 -18.04296875 13.328125 C-16 11 -16 11 -13 10 C-12.67 9.01 -12.34 8.02 -12 7 C-11.34 7 -10.68 7 -10 7 C-10 6.34 -10 5.68 -10 5 C-9.34 5 -8.68 5 -8 5 C-7.67 3.35 -7.34 1.7 -7 0 C-3.98968256 -0.93423645 -3.13349732 -1.04449911 0 0 Z " fill="#E0F7FE" transform="translate(136,373)"/>
<path d="M0 0 C0.66 0 1.32 0 2 0 C1.60106659 4.38826747 -0.17420988 6.90920967 -2.74609375 10.31640625 C-4.10398582 12.07688583 -4.10398582 12.07688583 -5.4375 14.4375 C-8.96491256 20.22245659 -13.07032472 25.36030562 -18 30 C-18.33 29.01 -18.66 28.02 -19 27 C-18.01 26.67 -17.02 26.34 -16 26 C-16 24.68 -16 23.36 -16 22 C-15.34 22 -14.68 22 -14 22 C-14 21.34 -14 20.68 -14 20 C-13.34 20 -12.68 20 -12 20 C-12 19.01 -12 18.02 -12 17 C-11.34 17 -10.68 17 -10 17 C-9.34 15.68 -8.68 14.36 -8 13 C-7.34 13 -6.68 13 -6 13 C-6 12.01 -6 11.02 -6 10 C-5.34 10 -4.68 10 -4 10 C-3.67 8.68 -3.34 7.36 -3 6 C-2.34 6 -1.68 6 -1 6 C-0.67 4.02 -0.34 2.04 0 0 Z " fill="#84A5D3" transform="translate(277,485)"/>
<path d="M0 0 C0.99 0 1.98 0 3 0 C3 8.25 3 16.5 3 25 C2.01 25 1.02 25 0 25 C0 16.75 0 8.5 0 0 Z " fill="#393838" transform="translate(597,525)"/>
<path d="M0 0 C1.27875 0.103125 2.5575 0.20625 3.875 0.3125 C4.95394531 0.39951172 4.95394531 0.39951172 6.0546875 0.48828125 C8 1 8 1 10 4 C12.08171404 4.9011261 12.08171404 4.9011261 14.4375 5.5 C18.68008747 6.6742252 18.68008747 6.6742252 20.4921875 8.51953125 C22.45135158 10.44316645 24.01436291 10.68386548 26.6875 11.1875 C27.49574219 11.34605469 28.30398437 11.50460937 29.13671875 11.66796875 C30.05904297 11.83232422 30.05904297 11.83232422 31 12 C22.5397013 14.55689027 14.53283536 9.54555253 7.13671875 5.8515625 C4.24569199 4.14502865 2.2219438 2.49077157 0 0 Z " fill="#79A4E0" transform="translate(140,522)"/>
<path d="M0 0 C0 0.33 0 0.66 0 1 C-1.70542969 1.05607422 -1.70542969 1.05607422 -3.4453125 1.11328125 C-17.20149736 1.65664307 -29.39482314 3.04715549 -41.671875 9.79296875 C-44 11 -44 11 -46 11 C-45.34 9.68 -44.68 8.36 -44 7 C-43.01 7 -42.02 7 -41 7 C-41 6.34 -41 5.68 -41 5 C-39.9275 4.71125 -38.855 4.4225 -37.75 4.125 C-34.22199623 3.19379664 -34.22199623 3.19379664 -32.015625 1.96875 C-23.0847236 -2.32362122 -9.70110429 -0.09178629 0 0 Z " fill="#CEF9FB" transform="translate(253,320)"/>
<path d="M0 0 C0.33 0 0.66 0 1 0 C0.98839844 1.07121094 0.97679687 2.14242187 0.96484375 3.24609375 C0.95546701 4.64322743 0.94636669 6.04036299 0.9375 7.4375 C0.92912109 8.14455078 0.92074219 8.85160156 0.91210938 9.58007812 C0.90346412 11.38693559 0.94779989 13.19387603 1 15 C1.33 15.33 1.66 15.66 2 16 C2.66 15.34 3.32 14.68 4 14 C4.61875 14.94875 5.2375 15.8975 5.875 16.875 C7.81970969 19.94445109 7.81970969 19.94445109 10 22 C9.67 22.33 9.34 22.66 9 23 C11.31 23.33 13.62 23.66 16 24 C16 24.33 16 24.66 16 25 C11.29300559 25.47069944 7.38992621 25.85562871 3.5625 22.75 C-0.76184896 18.10923527 -1.2605277 15.23504859 -1.1875 8.875 C-1.18105469 7.63492188 -1.17460937 6.39484375 -1.16796875 5.1171875 C-1 2 -1 2 0 0 Z " fill="#525353" transform="translate(385,531)"/>
<path d="M0 0 C26.17618469 -0.47387606 26.17618469 -0.47387606 38 4 C38 4.33 38 4.66 38 5 C36.27054347 4.85764543 34.54144346 4.71095618 32.8125 4.5625 C31.36810547 4.44068359 31.36810547 4.44068359 29.89453125 4.31640625 C27 4 27 4 24.6640625 3.5 C21.90540292 2.98224571 19.28398372 2.79322841 16.48046875 2.68359375 C15.45888672 2.64169922 14.43730469 2.59980469 13.38476562 2.55664062 C12.32966797 2.51732422 11.27457031 2.47800781 10.1875 2.4375 C8.57584961 2.37272461 8.57584961 2.37272461 6.93164062 2.30664062 C4.28787918 2.20089017 1.6440289 2.09879767 -1 2 C-0.67 1.34 -0.34 0.68 0 0 Z " fill="#7CB0FB" transform="translate(186,351)"/>
<path d="M0 0 C0.33 0 0.66 0 1 0 C1.33 2.97 1.66 5.94 2 9 C5.63 9.33 9.26 9.66 13 10 C13 10.66 13 11.32 13 12 C9.37 12 5.74 12 2 12 C2 16.62 2 21.24 2 26 C1.34 26 0.68 26 0 26 C0 17.42 0 8.84 0 0 Z " fill="#2E2E2D" transform="translate(500,529)"/>
<path d="M0 0 C3.10551666 3.10551666 3.81323934 4.89198233 5 9 C4.01 9 3.02 9 2 9 C2.33 13.95 2.66 18.9 3 24 C1.02 24.33 -0.96 24.66 -3 25 C-2.01 24.67 -1.02 24.34 0 24 C0 16.08 0 8.16 0 0 Z " fill="#C1C0BF" transform="translate(420,531)"/>
<path d="M0 0 C0.99 0.33 1.98 0.66 3 1 C2.38253906 1.47308594 1.76507813 1.94617188 1.12890625 2.43359375 C-5.02799711 7.24103884 -10.58568486 12.37564677 -16 18 C-16.66 18.66 -17.32 19.32 -18 20 C-18.33 19.01 -18.66 18.02 -19 17 C-18.195625 16.236875 -17.39125 15.47375 -16.5625 14.6875 C-13.83200976 12.20569102 -13.83200976 12.20569102 -13 9 C-10.9375 8.3125 -10.9375 8.3125 -9 8 C-9 7.34 -9 6.68 -9 6 C-8.34 6 -7.68 6 -7 6 C-7 5.34 -7 4.68 -7 4 C-5.68 4 -4.36 4 -3 4 C-3 3.34 -3 2.68 -3 2 C-2.01 1.34 -1.02 0.68 0 0 Z " fill="#DCFDFE" transform="translate(204,331)"/>
<path d="M0 0 C2.5625 1.5 2.5625 1.5 4 3 C3.67 3.99 3.34 4.98 3 6 C2.11957031 5.83242188 1.23914063 5.66484375 0.33203125 5.4921875 C-0.82941406 5.28851562 -1.99085938 5.08484375 -3.1875 4.875 C-4.33605469 4.66617188 -5.48460937 4.45734375 -6.66796875 4.2421875 C-10.14123227 3.98973458 -11.93376527 4.4408976 -15 6 C-10.38628204 0.00216665 -7.43401492 -0.79225736 0 0 Z " fill="#424243" transform="translate(568,524)"/>
<path d="M0 0 C6.99084078 6.6141791 11.74422126 15.65018606 14 25 C13.67 25.99 13.34 26.98 13 28 C12.67 28 12.34 28 12 28 C11.71125 26.88625 11.4225 25.7725 11.125 24.625 C10.30758671 20.99708908 10.30758671 20.99708908 8 19 C8 17.68 8 16.36 8 15 C7.34 15 6.68 15 6 15 C5.34 13.02 4.68 11.04 4 9 C3.34 9 2.68 9 2 9 C1.34 6.03 0.68 3.06 0 0 Z " fill="#234FB5" transform="translate(269,391)"/>
<path d="M0 0 C4.98469052 -0.29321709 8.04820644 -0.18338925 12 3 C13.875 5.4375 13.875 5.4375 15 8 C14.6875 10.3125 14.6875 10.3125 14 12 C13.938125 11.071875 13.938125 11.071875 13.875 10.125 C13.58625 9.42375 13.2975 8.7225 13 8 C10.24236568 6.85771342 10.24236568 6.85771342 7 6 C3.6875 4.5625 3.6875 4.5625 1 3 C0.67 2.01 0.34 1.02 0 0 Z " fill="#474546" transform="translate(611,537)"/>
<path d="M0 0 C0.99 0 1.98 0 3 0 C3 7.92 3 15.84 3 24 C2.34 24 1.68 24 1 24 C0.3533402 15.98603754 -0.16677223 8.04212755 0 0 Z " fill="#2E2E2E" transform="translate(579,525)"/>
<path d="M0 0 C0.66 0 1.32 0 2 0 C2 11.55 2 23.1 2 35 C1.67 35 1.34 35 1 35 C0.05172071 29.01793817 -0.32332316 23.09796497 -0.60546875 17.05273438 C-0.78001565 12.9768815 -0.78001565 12.9768815 -1.57617188 8.99291992 C-2.26320539 5.76235853 -1.00419466 3.07165425 0 0 Z " fill="#628DF9" transform="translate(172,375)"/>
<path d="M0 0 C7.01025914 10.51538872 5.11744401 25.90326709 5 38 C4.67 38 4.34 38 4 38 C3.67 33.38 3.34 28.76 3 24 C2.67 24 2.34 24 2 24 C1.93941406 23.02160156 1.87882812 22.04320312 1.81640625 21.03515625 C1.36678488 14.00031117 0.85950635 6.99883741 0 0 Z " fill="#295AB0" transform="translate(283,418)"/>
<path d="M0 0 C4.75 1.875 4.75 1.875 7 3 C7 3.99 7 4.98 7 6 C7.66 6 8.32 6 9 6 C9.66 7.65 10.32 9.3 11 11 C11.66 11 12.32 11 13 11 C16.10096154 16.45769231 16.10096154 16.45769231 15.58984375 19.203125 C15.39519531 19.79609375 15.20054687 20.3890625 15 21 C14.50693359 20.09121094 14.50693359 20.09121094 14.00390625 19.1640625 C10.5385017 13.05969134 6.57808706 8.032267 1.7578125 2.93359375 C0 1 0 1 0 0 Z " fill="#7AC0EC" transform="translate(261,381)"/>
<path d="M0 0 C1.32 0 2.64 0 4 0 C4.83819158 1.62249941 5.6704116 3.24808497 6.5 4.875 C6.9640625 5.77992188 7.428125 6.68484375 7.90625 7.6171875 C9 10 9 10 9 12 C8.34 12 7.68 12 7 12 C6.67 12.66 6.34 13.32 6 14 C4.99770632 11.85521084 3.99807145 9.70925278 3 7.5625 C2.1646875 5.77005859 2.1646875 5.77005859 1.3125 3.94140625 C0 1 0 1 0 0 Z " fill="#444444" transform="translate(463,525)"/>
<path d="M0 0 C1.3672322 4.1016966 -0.0094502 6.9930376 -1.3125 10.9375 C-1.53873047 11.65357422 -1.76496094 12.36964844 -1.99804688 13.10742188 C-3.10467058 16.54847944 -4.23588099 19.82789868 -6 23 C-6.33 23 -6.66 23 -7 23 C-7.042721 21.33388095 -7.04063832 19.66617115 -7 18 C-6.67 17.67 -6.34 17.34 -6 17 C-5.6068352 15.32115762 -5.25914548 13.63149955 -4.9375 11.9375 C-4.76089844 11.01839844 -4.58429688 10.09929687 -4.40234375 9.15234375 C-4.26957031 8.44207031 -4.13679688 7.73179687 -4 7 C-3.34 7 -2.68 7 -2 7 C-1.34 4.69 -0.68 2.38 0 0 Z " fill="#8CABD5" transform="translate(286,462)"/>
<path d="M0 0 C1.98 0 3.96 0 6 0 C6 1.98 6 3.96 6 6 C6.99 6 7.98 6 9 6 C9.12375 6.928125 9.12375 6.928125 9.25 7.875 C10.23825442 10.67505419 11.40359985 10.74113932 14 12 C15.12890625 14.0625 15.12890625 14.0625 16 16 C2.03174603 6.0952381 2.03174603 6.0952381 0 0 Z " fill="#81AAE3" transform="translate(122,505)"/>
<path d="M0 0 C0.66 0.33 1.32 0.66 2 1 C1.34 2.65 0.68 4.3 0 6 C-2.97 6 -5.94 6 -9 6 C-9.33 6.99 -9.66 7.98 -10 9 C-11.98 9.33 -13.96 9.66 -16 10 C-12.96086531 6.63052458 -9.93142307 4.69577825 -5.875 2.6875 C-4.29332031 1.88892578 -4.29332031 1.88892578 -2.6796875 1.07421875 C-1.79539063 0.71972656 -0.91109375 0.36523438 0 0 Z " fill="#78A9EE" transform="translate(158,359)"/>
<path d="M0 0 C0 0.66 0 1.32 0 2 C-0.99 2 -1.98 2 -3 2 C-3 2.99 -3 3.98 -3 5 C-7.95 6.485 -7.95 6.485 -13 8 C-13 6.68 -13 5.36 -13 4 C-11.39850114 3.32694982 -9.79368971 2.66177773 -8.1875 2 C-7.29417969 1.62875 -6.40085938 1.2575 -5.48046875 0.875 C-3 0 -3 0 0 0 Z " fill="#6D9DE7" transform="translate(236,527)"/>
<path d="M0 0 C-6.46950543 4.50904924 -13.41855812 4.1547233 -21 4 C-18.15237934 1.15237934 -14.88875205 0.99563911 -11.0625 0.3125 C-10.33353516 0.17005859 -9.60457031 0.02761719 -8.85351562 -0.11914062 C-5.45549911 -0.745173 -3.32819335 -1.10939778 0 0 Z " fill="#74A5EB" transform="translate(185,354)"/>
<path d="M0 0 C0.99 0 1.98 0 3 0 C3.05401695 2.91691525 3.09368066 5.83282724 3.125 8.75 C3.15013672 9.9875 3.15013672 9.9875 3.17578125 11.25 C3.18222656 12.04921875 3.18867188 12.8484375 3.1953125 13.671875 C3.20578613 14.4050293 3.21625977 15.13818359 3.22705078 15.89355469 C3 18 3 18 1 22 C0.67 14.74 0.34 7.48 0 0 Z " fill="#262626" transform="translate(435,525)"/>
<path d="M0 0 C4.29 0 8.58 0 13 0 C12.34 1.32 11.68 2.64 11 4 C9.54176788 4.0270043 8.08339325 4.04639787 6.625 4.0625 C5.81289063 4.07410156 5.00078125 4.08570313 4.1640625 4.09765625 C2 4 2 4 0 3 C0 2.01 0 1.02 0 0 Z " fill="#3E3F3E" transform="translate(526,552)"/>
<path d="M0 0 C4.91935902 4.11619836 9.52647956 8.40410362 14 13 C13.01 13.495 13.01 13.495 12 14 C11.67 14.66 11.34 15.32 11 16 C7 10.25 7 10.25 7 8 C6.01 8 5.02 8 4 8 C3.67 6.68 3.34 5.36 3 4 C2.34 4 1.68 4 1 4 C0.67 2.68 0.34 1.36 0 0 Z " fill="#1A43B5" transform="translate(255,376)"/>
<path d="M0 0 C0.66 0.33 1.32 0.66 2 1 C1.319375 1.556875 0.63875 2.11375 -0.0625 2.6875 C-1.0215625 3.8321875 -1.0215625 3.8321875 -2 5 C-1.85974801 7.70705512 -1.85974801 7.70705512 -1 10 C-0.67 8.35 -0.34 6.7 0 5 C0.268125 5.598125 0.53625 6.19625 0.8125 6.8125 C1.98493467 8.97224808 3.19369282 10.35790256 5 12 C3.02 12.66 1.04 13.32 -1 14 C-3.19007834 11.62741513 -3.965678 10.23535087 -4.4375 7 C-3.90883564 3.37487294 -2.79352638 2.26974019 0 0 Z " fill="#605F5F" transform="translate(611,525)"/>
<path d="M0 0 C1 2 1 2 0.3125 4.3125 C-1.12364905 7.25318614 -2.96039196 9.45048995 -5 12 C-6.24016669 14.6794645 -6.24016669 14.6794645 -7 17 C-7.66 17 -8.32 17 -9 17 C-7.46933687 11.18348012 -4.32262613 4.32262613 0 0 Z " fill="#77A9EE" transform="translate(118,391)"/>
<path d="M0 0 C1.32 0.33 2.64 0.66 4 1 C3.66226563 1.65226562 3.32453125 2.30453125 2.9765625 2.9765625 C0.6285312 7.57761806 -1.5577613 12.01772085 -3 17 C-3.33 17 -3.66 17 -4 17 C-3.58411954 10.80481527 -2.39748106 5.73310689 0 0 Z " fill="#6792FA" transform="translate(179,356)"/>
<path d="M0 0 C3.63 0 7.26 0 11 0 C11 0.66 11 1.32 11 2 C13.97 2.495 13.97 2.495 17 3 C17.33 3.99 17.66 4.98 18 6 C17.05640625 5.70996094 17.05640625 5.70996094 16.09375 5.4140625 C10.75783615 3.7907875 5.42240732 2.30539435 0 1 C0 0.67 0 0.34 0 0 Z " fill="#E0FBFC" transform="translate(260,321)"/>
<path d="M0 0 C0.33 0 0.66 0 1 0 C1.03738281 0.72445312 1.07476563 1.44890625 1.11328125 2.1953125 C1.49860998 7.86191152 1.984536 12.14903618 5 17 C4.34 17 3.68 17 3 17 C3 17.66 3 18.32 3 19 C1.0625 18.1875 1.0625 18.1875 -1 17 C-1.33 16.01 -1.66 15.02 -2 14 C-1.34 13.67 -0.68 13.34 0 13 C0 8.71 0 4.42 0 0 Z " fill="#636362" transform="translate(523,535)"/>
<path d="M0 0 C2.47859908 2.2008849 3.61210366 4.06372969 4.6875 7.1875 C4.93886719 7.90292969 5.19023437 8.61835937 5.44921875 9.35546875 C5.63097656 9.89816406 5.81273437 10.44085937 6 11 C5.34 11 4.68 11 4 11 C3.67 11.66 3.34 12.32 3 13 C1.35 9.7 -0.3 6.4 -2 3 C-1.34 2.67 -0.68 2.34 0 2 C0 1.34 0 0.68 0 0 Z " fill="#525253" transform="translate(428,538)"/>
<path d="M0 0 C0.66 0 1.32 0 2 0 C1.43289338 3.96974635 0.38663899 6.76098995 -2 10 C-4.6875 11.8125 -4.6875 11.8125 -7 13 C-6.67 11.68 -6.34 10.36 -6 9 C-5.34 9 -4.68 9 -4 9 C-4 7.68 -4 6.36 -4 5 C-3.34 5 -2.68 5 -2 5 C-2 4.34 -2 3.68 -2 3 C-1.34 3 -0.68 3 0 3 C0 2.01 0 1.02 0 0 Z " fill="#8BAADB" transform="translate(265,502)"/>
<path d="M0 0 C-3.37776975 1.84618297 -6.82013334 2.95263196 -10.5 4.0625 C-12.18609375 4.57490234 -12.18609375 4.57490234 -13.90625 5.09765625 C-16.26381291 5.78527876 -18.61163229 6.43217728 -21 7 C-21 6.34 -21 5.68 -21 5 C-13.98489358 1.57993678 -7.90459355 -0.23953314 0 0 Z " fill="#D6F3FE" transform="translate(175,354)"/>
<path d="M0 0 C0.7425 0.2475 1.485 0.495 2.25 0.75 C0.25 2.08333333 -1.75 3.41666667 -3.75 4.75 C-4.48343428 7.81556598 -4.48343428 7.81556598 -4.75 10.75 C-6.3125 9.5 -6.3125 9.5 -7.75 7.75 C-7.65876711 4.92178031 -6.71115552 3.69866979 -5 1.4375 C-2.75 -0.25 -2.75 -0.25 0 0 Z " fill="#363436" transform="translate(615.75,525.25)"/>
<path d="M0 0 C7.22114047 0.36717663 7.22114047 0.36717663 11 3.4375 C13 6 13 6 13 8 C7.73691968 6.58795406 4.2437012 4.31008693 0 1 C0 0.67 0 0.34 0 0 Z " fill="#82AAE4" transform="translate(140,522)"/>
<path d="M0 0 C5.24972347 4.10037573 9.20962911 8.52964787 13 14 C12.01 14.495 12.01 14.495 11 15 C10.34 14.67 9.68 14.34 9 14 C9 12.68 9 11.36 9 10 C8.01 9.67 7.02 9.34 6 9 C4.3125 7.5625 4.3125 7.5625 3 6 C3 5.34 3 4.68 3 4 C2.34 4 1.68 4 1 4 C0.67 2.68 0.34 1.36 0 0 Z " fill="#95D5D9" transform="translate(294,338)"/>
<path d="M0 0 C0 1.32 0 2.64 0 4 C-2.52475462 5.26237731 -4.31200466 5.09856404 -7.125 5.0625 C-8.03507813 5.05347656 -8.94515625 5.04445313 -9.8828125 5.03515625 C-10.58148437 5.02355469 -11.28015625 5.01195312 -12 5 C-11 3 -11 3 -9.00390625 2.1484375 C-8.19824219 1.89320313 -7.39257812 1.63796875 -6.5625 1.375 C-5.75941406 1.11460937 -4.95632813 0.85421875 -4.12890625 0.5859375 C-2 0 -2 0 0 0 Z " fill="#404040" transform="translate(572,550)"/>
<path d="M0 0 C0.38281159 5.23175837 -0.78145293 8.37802694 -3 13 C-3.33 13 -3.66 13 -4 13 C-4.08086147 11.20906809 -4.13912702 9.41710372 -4.1875 7.625 C-4.22230469 6.62726563 -4.25710938 5.62953125 -4.29296875 4.6015625 C-4.14794922 3.31378906 -4.14794922 3.31378906 -4 2 C-1 0 -1 0 0 0 Z " fill="#759EDC" transform="translate(287,456)"/>
<path d="M0 0 C4.05819183 0.65503282 7.53971282 1.94559121 11.3125 3.5625 C12.38113281 4.01753906 13.44976562 4.47257812 14.55078125 4.94140625 C15.76314453 5.46541016 15.76314453 5.46541016 17 6 C17 6.33 17 6.66 17 7 C15.35 7 13.7 7 12 7 C12 6.34 12 5.68 12 5 C11.319375 4.87625 10.63875 4.7525 9.9375 4.625 C6.5722588 3.90899123 3.29986575 2.97054875 0 2 C0 1.34 0 0.68 0 0 Z " fill="#1F44BC" transform="translate(215,355)"/>
<path d="M0 0 C0.33 0 0.66 0 1 0 C1.22786458 2.05078125 1.45572917 4.1015625 1.68359375 6.15234375 C1.81886614 8.01140229 1.81886614 8.01140229 3 9 C3.14115161 11.67058851 3.04247107 14.32432238 3 17 C2.01 16.67 1.02 16.34 0 16 C0 10.72 0 5.44 0 0 Z " fill="#E2F7FE" transform="translate(99,448)"/>
<path d="M0 0 C1.9375 0.6875 1.9375 0.6875 4 2 C5.2652614 5.60112861 4.9392247 8.34745949 4 12 C1.77174356 9.77174356 1.30760631 8.34238372 0.375 5.375 C0.11460937 4.55773437 -0.14578125 3.74046875 -0.4140625 2.8984375 C-0.60742188 2.27195312 -0.80078125 1.64546875 -1 1 C-0.67 0.67 -0.34 0.34 0 0 Z " fill="#7AC5E5" transform="translate(280,406)"/>
<path d="M0 0 C1.98 0 3.96 0 6 0 C6 1.65 6 3.3 6 5 C4.02 5 2.04 5 0 5 C0 3.35 0 1.7 0 0 Z " fill="#515151" transform="translate(366,538)"/>
<path d="M0 0 C3.3 0 6.6 0 10 0 C10 0.99 10 1.98 10 3 C2.25 3.125 2.25 3.125 0 2 C0 1.34 0 0.68 0 0 Z " fill="#444444" transform="translate(610,553)"/>
<path d="M0 0 C0 0.33 0 0.66 0 1 C-0.969375 1.12375 -1.93875 1.2475 -2.9375 1.375 C-4.4534375 1.684375 -4.4534375 1.684375 -6 2 C-6.33 2.66 -6.66 3.32 -7 4 C-9.7696959 4.72886734 -12.12862585 5 -15 5 C-10.11364631 -0.01164481 -6.90153688 -0.69015369 0 0 Z " fill="#535354" transform="translate(568,524)"/>
<path d="M0 0 C3.10465605 5.58838089 3.10585301 10.75467219 3 17 C2.67 17 2.34 17 2 17 C1.46585888 15.10787298 0.94821671 13.21108364 0.4375 11.3125 C0.14746094 10.25675781 -0.14257812 9.20101563 -0.44140625 8.11328125 C-1.00124767 4.99304618 -0.84690764 3.02306766 0 0 Z " fill="#1639B6" transform="translate(282,418)"/>
<path d="M0 0 C0.66 0 1.32 0 2 0 C-1.07517084 10.55808656 -1.07517084 10.55808656 -3 15 C-4.56602809 10.30191573 -3.71685401 6.46487559 -1.5625 2.0625 C-1.046875 1.381875 -0.53125 0.70125 0 0 Z " fill="#D6F2FE" transform="translate(108,404)"/>
<path d="M0 0 C5.60461531 0.42089996 10.72086547 0.91613111 16 3 C16 3.33 16 3.66 16 4 C14.27054347 3.85764543 12.54144346 3.71095618 10.8125 3.5625 C9.36810547 3.44068359 9.36810547 3.44068359 7.89453125 3.31640625 C5.21350398 3.02333849 2.6337014 2.57296246 0 2 C0 1.34 0 0.68 0 0 Z " fill="#7EBDF6" transform="translate(208,352)"/>
<path d="M0 0 C0.33 0 0.66 0 1 0 C1.33 3.96 1.66 7.92 2 12 C1.01 12.495 1.01 12.495 0 13 C-1.25069801 10.49860398 -1.13302467 8.72607309 -1.125 5.9375 C-1.12757813 5.03902344 -1.13015625 4.14054688 -1.1328125 3.21484375 C-1 1 -1 1 0 0 Z " fill="#2D2E2D" transform="translate(386,535)"/>
<path d="M0 0 C0 0.33 0 0.66 0 1 C-1.65 1.33 -3.3 1.66 -5 2 C-2.69 2.33 -0.38 2.66 2 3 C1.67 3.66 1.34 4.32 1 5 C-1.97 5 -4.94 5 -8 5 C-8 4.34 -8 3.68 -8 3 C-8.66 2.67 -9.32 2.34 -10 2 C-6.3558226 -0.4294516 -4.28758728 -0.16179575 0 0 Z " fill="#616160" transform="translate(535,524)"/>
<path d="M0 0 C3.42025316 3.42025316 3.95344801 7.71982025 4.125 12.4375 C4.08375 13.283125 4.0425 14.12875 4 15 C3.34 14.67 2.68 14.34 2 14 C1.3671875 11.85546875 1.3671875 11.85546875 0.875 9.1875 C0.70742188 8.31480469 0.53984375 7.44210937 0.3671875 6.54296875 C0 4 0 4 0 0 Z " fill="#9DD4D7" transform="translate(315,369)"/>
<path d="M0 0 C0.680625 0.309375 1.36125 0.61875 2.0625 0.9375 C5.36965912 2.13370649 8.51545878 2.59005397 12 3 C12 3.33 12 3.66 12 4 C8.37 4.33 4.74 4.66 1 5 C0.34 3.68 -0.32 2.36 -1 1 C-0.67 0.67 -0.34 0.34 0 0 Z " fill="#595959" transform="translate(607,549)"/>
<path d="M0 0 C0.66 0 1.32 0 2 0 C2.66 1.98 3.32 3.96 4 6 C2.35 6.33 0.7 6.66 -1 7 C-1.33 5.35 -1.66 3.7 -2 2 C-1.34 2 -0.68 2 0 2 C0 1.34 0 0.68 0 0 Z " fill="#434242" transform="translate(420,525)"/>
<path d="M0 0 C1.41196151 2.30234022 2.02997047 3.59471753 1.828125 6.32421875 C1.63734375 7.10410156 1.4465625 7.88398438 1.25 8.6875 C0.97929688 9.86892578 0.97929688 9.86892578 0.703125 11.07421875 C0 13 0 13 -2 14 C-1.85795259 12.41632253 -1.71119847 10.83306682 -1.5625 9.25 C-1.48128906 8.36828125 -1.40007812 7.4865625 -1.31640625 6.578125 C-1.03761535 4.30649548 -0.61209423 2.20148177 0 0 Z " fill="#77A8E9" transform="translate(104,419)"/>
<path d="M0 0 C2.0625 0.4375 2.0625 0.4375 4 1 C3.1875 3.4375 3.1875 3.4375 2 6 C1.01 6.33 0.02 6.66 -1 7 C-1.04254356 5.00045254 -1.04080783 2.99958364 -1 1 C-0.67 0.67 -0.34 0.34 0 0 Z " fill="#424242" transform="translate(480,525)"/>
<path d="M0 0 C-1.48781815 3.78717347 -3.61988409 5.77407001 -7 8 C-7.99 7.67 -8.98 7.34 -10 7 C-8.71372289 5.82739389 -7.42080217 4.6620717 -6.125 3.5 C-5.04605469 2.52546875 -5.04605469 2.52546875 -3.9453125 1.53125 C-2 0 -2 0 0 0 Z " fill="#EAF9FA" transform="translate(298,448)"/>
<path d="M0 0 C0.66 0 1.32 0 2 0 C4.10428384 5.12919186 4.21755666 9.5610835 4 15 C3.67 15 3.34 15 3 15 C2.01 10.05 1.02 5.1 0 0 Z " fill="#7CC6EB" transform="translate(284,419)"/>
<path d="M0 0 C4.43458973 1.3937282 6.87378374 3.60582235 10 7 C6.4257023 6.67506385 4.44287547 6.36129314 1.625 4.0625 C0 2 0 2 0 0 Z " fill="#1D44B7" transform="translate(245,369)"/>
<path d="M0 0 C1.98 0 3.96 0 6 0 C6 1.32 6 2.64 6 4 C4.02 4 2.04 4 0 4 C0 2.68 0 1.36 0 0 Z " fill="#4A4A4A" transform="translate(639,538)"/>
<path d="M0 0 C0.33 0 0.66 0 1 0 C0.03644647 10.55808656 0.03644647 10.55808656 -1 15 C-1.33 15 -1.66 15 -2 15 C-2.05429959 13.25034642 -2.09292823 11.50020213 -2.125 9.75 C-2.15980469 8.28820312 -2.15980469 8.28820312 -2.1953125 6.796875 C-1.99862781 3.9803502 -1.44568916 2.39050964 0 0 Z " fill="#605F5E" transform="translate(552,530)"/>
<path d="M0 0 C0 0.99 0 1.98 0 3 C-3.3 3 -6.6 3 -10 3 C-9.67 2.34 -9.34 1.68 -9 1 C-5.93090555 0.33280556 -3.14213983 0 0 0 Z " fill="#2E302F" transform="translate(403,552)"/>
<path d="M0 0 C2.64 0 5.28 0 8 0 C8.33 1.32 8.66 2.64 9 4 C8.34 4 7.68 4 7 4 C7 3.34 7 2.68 7 2 C4.36 2 1.72 2 -1 2 C-0.67 1.34 -0.34 0.68 0 0 Z " fill="#373736" transform="translate(530,525)"/>
<path d="M0 0 C1.98 0 3.96 0 6 0 C6 1.65 6 3.3 6 5 C4.125 4.75 4.125 4.75 2 4 C0.75 1.9375 0.75 1.9375 0 0 Z " fill="#77A5E5" transform="translate(122,505)"/>
<path d="M0 0 C-2.475 1.485 -2.475 1.485 -5 3 C-5 2.34 -5 1.68 -5 1 C-9.455 1.495 -9.455 1.495 -14 2 C-9.21904213 -0.39047894 -5.18781778 -1.72927259 0 0 Z " fill="#85ACF6" transform="translate(185,354)"/>
<path d="M0 0 C0.66 0 1.32 0 2 0 C5.11450382 4.15267176 5.11450382 4.15267176 4.6875 7.3125 C4.460625 7.869375 4.23375 8.42625 4 9 C3.896875 8.360625 3.79375 7.72125 3.6875 7.0625 C3.460625 6.381875 3.23375 5.70125 3 5 C2.01 4.67 1.02 4.34 0 4 C0 2.68 0 1.36 0 0 Z " fill="#30302F" transform="translate(621,540)"/>
<path d="M0 0 C1.1875 1.5625 1.1875 1.5625 2 4 C0.8125 7.6875 0.8125 7.6875 -1 11 C-1.99 11.33 -2.98 11.66 -4 12 C-2.66666667 8 -1.33333333 4 0 0 Z " fill="#E3EDF7" transform="translate(283,475)"/>
<path d="M0 0 C2.25 -0.25 2.25 -0.25 5 0 C7.3125 2 7.3125 2 9 4 C8.01 4.495 8.01 4.495 7 5 C4.5249829 3.88568235 2.32116581 2.41849022 0 1 C0 0.67 0 0.34 0 0 Z " fill="#2247C4" transform="translate(208,457)"/>
<path d="M0 0 C4 4.75 4 4.75 4 7 C3.01 7.33 2.02 7.66 1 8 C0.26919734 6.02253397 -0.39421747 4.01927511 -1 2 C-0.67 1.34 -0.34 0.68 0 0 Z " fill="#DCDCDC" transform="translate(482,374)"/>
<path d="M0 0 C2.31 0 4.62 0 7 0 C6.34 1.32 5.68 2.64 5 4 C3.0625 3.6875 3.0625 3.6875 1 3 C0.67 2.01 0.34 1.02 0 0 Z " fill="#403F3F" transform="translate(611,537)"/>
<path d="M0 0 C3.2542015 2.83430453 4.5206753 4.68607774 5 9 C4.01 9 3.02 9 2 9 C1.34 6.03 0.68 3.06 0 0 Z " fill="#1F4FAF" transform="translate(269,391)"/>
<path d="M0 0 C0.33 0.66 0.66 1.32 1 2 C0.67 2.99 0.34 3.98 0 5 C-1.98 5.33 -3.96 5.66 -6 6 C-2.25 1.125 -2.25 1.125 0 0 Z " fill="#77AAEF" transform="translate(132,376)"/>
<path d="M0 0 C2.31 0 4.62 0 7 0 C3.71536341 2.18975773 0.79303725 2.99806563 -3 4 C-3 3.34 -3 2.68 -3 2 C-2.01 2 -1.02 2 0 2 C0 1.34 0 0.68 0 0 Z " fill="#85A8D6" transform="translate(226,531)"/>
<path d="M0 0 C1.98 0.99 1.98 0.99 4 2 C4 2.66 4 3.32 4 4 C4.66 4 5.32 4 6 4 C5.67 5.32 5.34 6.64 5 8 C4.16382818 6.8562364 3.33113541 5.70992861 2.5 4.5625 C2.0359375 3.92441406 1.571875 3.28632813 1.09375 2.62890625 C0 1 0 1 0 0 Z " fill="#80A7E4" transform="translate(116,497)"/>
<path d="M0 0 C1.96301592 3.50538557 2.95902388 7.13351728 4 11 C3.34 10.67 2.68 10.34 2 10 C2 9.34 2 8.68 2 8 C1.34 8 0.68 8 0 8 C0 5.36 0 2.72 0 0 Z " fill="#D1EBFD" transform="translate(103,469)"/>
<path d="M0 0 C2.475 0.495 2.475 0.495 5 1 C5 1.66 5 2.32 5 3 C5.66 3 6.32 3 7 3 C7.33 4.32 7.66 5.64 8 7 C6.66382648 6.02471263 5.3311249 5.04466681 4 4.0625 C3.2575 3.51722656 2.515 2.97195313 1.75 2.41015625 C1.1725 1.94480469 0.595 1.47945313 0 1 C0 0.67 0 0.34 0 0 Z " fill="#DAF9FB" transform="translate(290,334)"/>
<path d="M0 0 C0.66 0.33 1.32 0.66 2 1 C2 2.32 2 3.64 2 5 C1.01 5.33 0.02 5.66 -1 6 C-1.66 4.68 -2.32 3.36 -3 2 C-2.01 2 -1.02 2 0 2 C0 1.34 0 0.68 0 0 Z " fill="#494949" transform="translate(407,530)"/>
<path d="M0 0 C4.875 4.75 4.875 4.75 6 7 C3.83125748 6.49396008 2.00032373 6.00016187 0 5 C0 3.35 0 1.7 0 0 Z " fill="#E5F6FE" transform="translate(121,505)"/>
<path d="M0 0 C4.95 1.98 4.95 1.98 10 4 C10 4.33 10 4.66 10 5 C5.75776898 5.3636198 3.41831915 4.5393228 0 2 C0 1.34 0 0.68 0 0 Z " fill="#6391F6" transform="translate(210,459)"/>
<path d="M0 0 C3.16115776 1.36983503 3.9927092 1.9890638 6 5 C5.34 5 4.68 5 4 5 C3.67 5.66 3.34 6.32 3 7 C0 2.25 0 2.25 0 0 Z " fill="#234DB9" transform="translate(263,385)"/>
<path d="M0 0 C3 2 3 2 3.8125 3.875 C4 6 4 6 2 10 C1.34 6.7 0.68 3.4 0 0 Z " fill="#C2C2C2" transform="translate(524,381)"/>
<path d="M0 0 C0.66 0.33 1.32 0.66 2 1 C-1.465 3.97 -1.465 3.97 -5 7 C-5.66 6.67 -6.32 6.34 -7 6 C-4.69 4.02 -2.38 2.04 0 0 Z " fill="#79A8EC" transform="translate(140,369)"/>
<path d="M0 0 C0.66 0 1.32 0 2 0 C2.66 2.31 3.32 4.62 4 7 C3.01 6.67 2.02 6.34 1 6 C0.67 4.02 0.34 2.04 0 0 Z " fill="#8FD6D3" transform="translate(311,361)"/>
</svg>
